HIERARCHY
ROOT Hips
{
  OFFSET 28.2995 106.729 44.3157
  CHANNELS 6 Xposition Yposition Zposition Zrotation Xrotation Yrotation
  JOINT ToSpine
  {
    OFFSET -2.69724 7.43032 -0.144315
    CHANNELS 3 Zrotation Xrotation Yrotation
    JOINT Spine
    {
      OFFSET -0.0310711 10.7595 1.96963
      CHANNELS 3 Zrotation Xrotation Yrotation
      JOINT Spine1
      {
        OFFSET 19.9056 3.91189 0.764692
        CHANNELS 3 Zrotation Xrotation Yrotation
        JOINT Neck
        {
          OFFSET 25.9749 7.03908 -0.130764
          CHANNELS 3 Zrotation Xrotation Yrotation
          JOINT Head
          {
            OFFSET 9.52751 0.295786 -0.907742
            CHANNELS 3 Zrotation Xrotation Yrotation
            End Site
            {
              OFFSET 16.4037 0.713936 2.7358
            }
          }
        }
        JOINT LeftShoulder
        {
          OFFSET 17.7449 4.33886 11.7777
          CHANNELS 3 Zrotation Xrotation Yrotation
          JOINT LeftArm
          {
            OFFSET 0.911315 1.27913 9.80584
            CHANNELS 3 Zrotation Xrotation Yrotation
            JOINT LeftForeArm
            {
              OFFSET 28.6126 1.18197 -3.53199
              CHANNELS 3 Zrotation Xrotation Yrotation
              JOINT LeftHand
              {
                OFFSET 27.5088 0.0218783 0.327423
                CHANNELS 3 Zrotation Xrotation Yrotation
                End Site
                {
                  OFFSET 18.6038 -0.000155887 0.382096
                }
              }
            }
          }
        }
        JOINT RightShoulder
        {
          OFFSET 17.1009 2.89543 -12.2328
          CHANNELS 3 Zrotation Xrotation Yrotation
          JOINT RightArm
          {
            OFFSET 1.4228 0.178766 -10.211
            CHANNELS 3 Zrotation Xrotation Yrotation
            JOINT RightForeArm
            {
              OFFSET 28.733 1.87905 2.64907
              CHANNELS 3 Zrotation Xrotation Yrotation
              JOINT RightHand
              {
                OFFSET 27.4588 0.290562 -0.101845
                CHANNELS 3 Zrotation Xrotation Yrotation
                End Site
                {
                  OFFSET 17.8396 -0.255518 -0.000602873
                }
              }
            }
          }
        }
      }
    }
  }
  JOINT LeftUpLeg
  {
    OFFSET -5.61296 -2.22332 -10.2353
    CHANNELS 3 Zrotation Xrotation Yrotation
    JOINT LeftLeg
    {
      OFFSET 2.56703 -44.7417 -7.93097
      CHANNELS 3 Zrotation Xrotation Yrotation
      JOINT LeftFoot
      {
        OFFSET 3.16933 -46.5642 -3.96578
        CHANNELS 3 Zrotation Xrotation Yrotation
        JOINT LeftToeBase
        {
          OFFSET 0.346054 -6.02161 12.8035
          CHANNELS 3 Zrotation Xrotation Yrotation
          End Site
          {
            OFFSET 0.134235 -1.35082 5.13018
          }
        }
      }
    }
  }
  JOINT RightUpLeg
  {
    OFFSET -5.7928 -1.72406 10.6446
    CHANNELS 3 Zrotation Xrotation Yrotation
    JOINT RightLeg
    {
      OFFSET -2.57161 -44.7178 -7.85259
      CHANNELS 3 Zrotation Xrotation Yrotation
      JOINT RightFoot
      {
        OFFSET -3.10148 -46.5936 -4.03391
        CHANNELS 3 Zrotation Xrotation Yrotation
        JOINT RightToeBase
        {
          OFFSET -0.0828122 -6.13587 12.8035
          CHANNELS 3 Zrotation Xrotation Yrotation
          End Site
          {
            OFFSET -0.131328 -1.35082 5.13018
          }
        }
      }
    }
  }
}
MOTION
Frames:	6
Frame Time:	0.0333333
19.4049 105.591 48.8611 76.8666 25.6084 7.94333 -70.1915 0 88.8779 79.7911 71.7282 4.68331 6.24644 20.3229 3.49094 -133.642 7.06532 179.945 -139.805 43.0944 -178.542 1.86747 -6.2782 -35.3638 -93.7205 39.8385 -112.488 -5.55728 43.6433 -4.69308 11.2832 -0.214911 -0.484148 -0.0156712 -0.154281 57.358 -93.9502 -24.53 81.8975 -6.22806 -18.7162 5.4438 9.3755 -0.280588 -4.03289 -54.5502 -3.12875 94.0984 4.5619 23.3561 -20.333 8.50021 6.77872 -1.14654 -7.84476 -18.8066 -1.14298 -50.3084 4.90144 78.0345 1.00332 36.6129 -1.69469 -7.28402 -3.85001 1.08531 -4.35957 -21.5136 -5.43991 
20.2981 105.829 48.2256 76.7217 25.541 7.67242 -70.1915 0 88.8779 77.1221 71.8837 7.69584 6.87589 20.6884 3.42301 -134.49 7.00884 179.855 -139.636 43.2358 -177.849 1.87856 -6.31152 -35.9108 -91.342 39.147 -114.411 -4.94584 42.899 -5.98589 11.5026 -0.224744 -0.537814 -0.0727261 -0.0124248 56.8486 -93.3417 -25.0306 82.2291 -5.94605 -18.8332 6.13421 10.3286 -0.27478 -3.60251 -55.7915 -3.67801 93.8207 4.49714 21.9924 -19.8134 8.33751 7.16407 -1.11759 -8.08809 -19.3544 -1.18475 -52.7666 4.82716 78.0767 1.02852 29.9841 -2.65004 -7.13642 -1.62131 1.05148 -3.50587 -18.0392 -5.62492 
21.1676 106.097 47.6032 76.6578 25.25 7.30443 -70.1915 0 88.8779 75.5578 71.9782 10.0055 6.77326 21.0977 3.0721 -134.668 6.70637 179.689 -139.864 43.1505 -177.105 1.92338 -6.15438 -36.1236 -90.5099 39.3462 -114.448 -4.83741 43.9605 -6.1566 11.4858 -0.260784 -0.889177 -0.0688135 -0.02629 57.1208 -91.9975 -24.8134 83.26 -6.01147 -18.974 6.29514 11.326 -0.272982 -3.27972 -57.3 -4.22782 93.4796 4.39965 20.1968 -19.0237 8.15191 7.89029 -1.08285 -8.4831 -20.2338 -1.27124 -54.8157 5.2988 80.2071 0.887114 26.2113 -5.32993 -7.18065 0.297191 1.03919 -0.702427 -3.9887 -0.291979 
22.011 106.28 46.9862 76.9026 24.7154 7.0638 -70.1915 0 88.8779 74.6351 72.0097 11.9667 6.93365 21.3362 2.92247 -135.003 6.49328 -179.954 -139.657 42.8744 -177.008 2.03735 -5.83808 -37.1146 -91.5093 39.5885 -112.95 -5.22093 45.8399 -5.41319 11.3145 -0.324005 -1.54749 -0.00870721 -0.161276 56.6742 -90.9963 -24.9254 84.9498 -6.07531 -19.7826 6.25438 12.374 -0.330852 -3.57992 -58.635 -4.33477 93.4249 4.34566 19.2197 -18.3584 8.06123 8.14642 -1.06527 -8.81188 -20.9612 -1.34002 -56.2426 6.06267 81.4198 0.219518 24.837 -5.65206 -6.83721 0.048619 0.99944 -0.523058 -2.74433 0.145202 
22.791 106.441 46.3598 76.8813 24.0095 7.39202 -70.1915 0 88.8779 74.227 71.78 13.9598 6.96264 21.3098 2.56592 -135.244 5.87363 179.825 -138.52 42.0391 -177.686 2.09164 -5.72058 -37.7426 -92.3121 40.1746 -109.935 -4.78189 45.9392 -5.75619 11.3403 -0.323202 -1.53236 -0.00234869 -0.178302 56.8199 -89.0055 -24.1782 86.906 -6.172 -18.3026 6.86014 13.0645 -0.223274 -2.41329 -59.2885 -3.93825 93.598 4.43186 18.9501 -17.9892 8.04042 7.99069 -1.06169 -9.04728 -21.4729 -1.41131 -57.548 6.60233 81.5784 0.179984 23.2338 -5.12467 -6.79867 0.26102 0.99215 -0.517279 -2.54064 0.41182 
23.557 106.544 45.8518 76.5704 23.6399 7.60793 -70.1915 0 88.8779 71.9504 71.4144 16.849 7.03954 21.1453 2.82738 -135.093 4.90707 179.441 -137.18 41.0726 -177.366 2.06424 -5.85845 -37.936 -92.9126 41.1645 -106.357 -4.48603 44.6343 -6.18206 11.0258 -0.21135 -0.498697 -0.0231338 -0.130792 56.9325 -86.8816 -23.8145 88.2481 -5.30425 -15.6544 9.01031 12.9551 -0.45732 -4.59684 -59.6635 -3.86868 93.577 4.4574 18.6456 -17.6259 8.02547 8.01571 -1.05881 -9.35127 -22.1444 -1.45266 -58.314 6.87686 81.7301 0.0279549 22.1397 -4.83177 -6.81892 0.261733 0.994651 -0.51912 -2.45875 0.552432 
